<mxfile host="app.diagrams.net" agent="Mozilla/5.0 (Windows NT 10.0; Win64; x64) AppleWebKit/537.36 (KHTML, like Gecko) Chrome/137.0.0.0 Safari/537.36" version="27.1.4">
  <diagram name="Page-1" id="n8Te6aHYQAUc9WfDycOQ">
    <mxGraphModel dx="1092" dy="1708" grid="1" gridSize="10" guides="1" tooltips="1" connect="1" arrows="1" fold="1" page="1" pageScale="1" pageWidth="850" pageHeight="1100" math="0" shadow="0">
      <root>
        <mxCell id="0" />
        <mxCell id="1" parent="0" />
        <mxCell id="_PpkcO6HTQbjcZgm5GMA-45" style="edgeStyle=orthogonalEdgeStyle;rounded=0;orthogonalLoop=1;jettySize=auto;html=1;" edge="1" parent="1" source="_PpkcO6HTQbjcZgm5GMA-1" target="_PpkcO6HTQbjcZgm5GMA-46">
          <mxGeometry relative="1" as="geometry">
            <mxPoint x="360" y="160.0000000000001" as="targetPoint" />
          </mxGeometry>
        </mxCell>
        <mxCell id="_PpkcO6HTQbjcZgm5GMA-1" value="User visits site" style="rounded=0;whiteSpace=wrap;html=1;hachureGap=4;fontFamily=Helvetica;gradientColor=none;fillColor=default;fillStyle=auto;glass=0;" vertex="1" parent="1">
          <mxGeometry x="315" y="70" width="90" height="50" as="geometry" />
        </mxCell>
        <mxCell id="_PpkcO6HTQbjcZgm5GMA-4" style="edgeStyle=orthogonalEdgeStyle;rounded=1;hachureGap=4;orthogonalLoop=1;jettySize=auto;html=1;fontFamily=Architects Daughter;fontSource=https%3A%2F%2Ffonts.googleapis.com%2Fcss%3Ffamily%3DArchitects%2BDaughter;entryX=0.5;entryY=0;entryDx=0;entryDy=0;curved=0;" edge="1" parent="1" source="_PpkcO6HTQbjcZgm5GMA-3" target="_PpkcO6HTQbjcZgm5GMA-6">
          <mxGeometry relative="1" as="geometry">
            <mxPoint x="240" y="365" as="targetPoint" />
          </mxGeometry>
        </mxCell>
        <mxCell id="_PpkcO6HTQbjcZgm5GMA-5" value="No" style="edgeLabel;html=1;align=center;verticalAlign=middle;resizable=0;points=[];hachureGap=4;fontFamily=Helvetica;" vertex="1" connectable="0" parent="_PpkcO6HTQbjcZgm5GMA-4">
          <mxGeometry x="-0.1723" y="1" relative="1" as="geometry">
            <mxPoint x="6" y="-1" as="offset" />
          </mxGeometry>
        </mxCell>
        <mxCell id="_PpkcO6HTQbjcZgm5GMA-18" style="edgeStyle=orthogonalEdgeStyle;rounded=1;hachureGap=4;orthogonalLoop=1;jettySize=auto;html=1;fontFamily=Architects Daughter;fontSource=https%3A%2F%2Ffonts.googleapis.com%2Fcss%3Ffamily%3DArchitects%2BDaughter;entryX=0.5;entryY=0;entryDx=0;entryDy=0;curved=0;" edge="1" parent="1" source="_PpkcO6HTQbjcZgm5GMA-3" target="_PpkcO6HTQbjcZgm5GMA-19">
          <mxGeometry relative="1" as="geometry">
            <mxPoint x="480" y="365" as="targetPoint" />
          </mxGeometry>
        </mxCell>
        <mxCell id="_PpkcO6HTQbjcZgm5GMA-3" value="Has account?" style="rhombus;whiteSpace=wrap;html=1;hachureGap=4;fontFamily=Helvetica;rounded=0;" vertex="1" parent="1">
          <mxGeometry x="310" y="320" width="100" height="90" as="geometry" />
        </mxCell>
        <mxCell id="_PpkcO6HTQbjcZgm5GMA-8" value="" style="edgeStyle=orthogonalEdgeStyle;rounded=0;hachureGap=4;orthogonalLoop=1;jettySize=auto;html=1;fontFamily=Architects Daughter;fontSource=https%3A%2F%2Ffonts.googleapis.com%2Fcss%3Ffamily%3DArchitects%2BDaughter;" edge="1" parent="1" source="_PpkcO6HTQbjcZgm5GMA-6" target="_PpkcO6HTQbjcZgm5GMA-7">
          <mxGeometry relative="1" as="geometry" />
        </mxCell>
        <mxCell id="_PpkcO6HTQbjcZgm5GMA-6" value="View Login/ Register Forms&amp;nbsp;" style="rounded=0;whiteSpace=wrap;html=1;hachureGap=4;fontFamily=Helvetica;" vertex="1" parent="1">
          <mxGeometry x="150" y="400" width="120" height="60" as="geometry" />
        </mxCell>
        <mxCell id="_PpkcO6HTQbjcZgm5GMA-14" style="edgeStyle=orthogonalEdgeStyle;rounded=1;hachureGap=4;orthogonalLoop=1;jettySize=auto;html=1;entryX=0;entryY=0.5;entryDx=0;entryDy=0;fontFamily=Architects Daughter;fontSource=https%3A%2F%2Ffonts.googleapis.com%2Fcss%3Ffamily%3DArchitects%2BDaughter;curved=0;" edge="1" parent="1" source="_PpkcO6HTQbjcZgm5GMA-7" target="_PpkcO6HTQbjcZgm5GMA-9">
          <mxGeometry relative="1" as="geometry" />
        </mxCell>
        <mxCell id="_PpkcO6HTQbjcZgm5GMA-15" value="Auto Login" style="edgeLabel;html=1;align=center;verticalAlign=middle;resizable=0;points=[];hachureGap=4;fontFamily=Helvetica;" vertex="1" connectable="0" parent="_PpkcO6HTQbjcZgm5GMA-14">
          <mxGeometry x="0.0074" y="-1" relative="1" as="geometry">
            <mxPoint y="-1" as="offset" />
          </mxGeometry>
        </mxCell>
        <mxCell id="_PpkcO6HTQbjcZgm5GMA-7" value="Register Account" style="whiteSpace=wrap;html=1;fontFamily=Helvetica;rounded=0;hachureGap=4;" vertex="1" parent="1">
          <mxGeometry x="150" y="500" width="120" height="60" as="geometry" />
        </mxCell>
        <mxCell id="_PpkcO6HTQbjcZgm5GMA-22" style="edgeStyle=orthogonalEdgeStyle;rounded=1;orthogonalLoop=1;jettySize=auto;html=1;curved=0;strokeColor=default;jumpStyle=none;" edge="1" parent="1" target="_PpkcO6HTQbjcZgm5GMA-23">
          <mxGeometry relative="1" as="geometry">
            <mxPoint x="471" y="680" as="targetPoint" />
            <mxPoint x="470.9999999999999" y="590" as="sourcePoint" />
          </mxGeometry>
        </mxCell>
        <mxCell id="_PpkcO6HTQbjcZgm5GMA-25" style="edgeStyle=orthogonalEdgeStyle;rounded=1;orthogonalLoop=1;jettySize=auto;html=1;strokeColor=default;curved=0;" edge="1" parent="1" source="_PpkcO6HTQbjcZgm5GMA-9" target="_PpkcO6HTQbjcZgm5GMA-26">
          <mxGeometry relative="1" as="geometry">
            <mxPoint x="481" y="740" as="targetPoint" />
          </mxGeometry>
        </mxCell>
        <mxCell id="_PpkcO6HTQbjcZgm5GMA-28" style="edgeStyle=orthogonalEdgeStyle;rounded=1;orthogonalLoop=1;jettySize=auto;html=1;exitX=0.833;exitY=1.013;exitDx=0;exitDy=0;exitPerimeter=0;curved=0;" edge="1" parent="1" source="_PpkcO6HTQbjcZgm5GMA-9" target="_PpkcO6HTQbjcZgm5GMA-29">
          <mxGeometry relative="1" as="geometry">
            <mxPoint x="561" y="790" as="targetPoint" />
            <mxPoint x="511" y="600" as="sourcePoint" />
          </mxGeometry>
        </mxCell>
        <mxCell id="_PpkcO6HTQbjcZgm5GMA-56" style="edgeStyle=orthogonalEdgeStyle;rounded=0;orthogonalLoop=1;jettySize=auto;html=1;" edge="1" parent="1" target="_PpkcO6HTQbjcZgm5GMA-57">
          <mxGeometry relative="1" as="geometry">
            <mxPoint x="820" y="590" as="targetPoint" />
            <mxPoint x="581" y="590" as="sourcePoint" />
          </mxGeometry>
        </mxCell>
        <mxCell id="_PpkcO6HTQbjcZgm5GMA-70" style="edgeStyle=orthogonalEdgeStyle;rounded=1;orthogonalLoop=1;jettySize=auto;html=1;curved=0;" edge="1" parent="1" source="_PpkcO6HTQbjcZgm5GMA-9" target="_PpkcO6HTQbjcZgm5GMA-71">
          <mxGeometry relative="1" as="geometry">
            <mxPoint x="570" y="960.0000000000002" as="targetPoint" />
            <Array as="points">
              <mxPoint x="540" y="690" />
              <mxPoint x="570" y="690" />
            </Array>
          </mxGeometry>
        </mxCell>
        <mxCell id="_PpkcO6HTQbjcZgm5GMA-76" style="edgeStyle=orthogonalEdgeStyle;rounded=1;orthogonalLoop=1;jettySize=auto;html=1;curved=0;" edge="1" parent="1" source="_PpkcO6HTQbjcZgm5GMA-9" target="_PpkcO6HTQbjcZgm5GMA-77">
          <mxGeometry relative="1" as="geometry">
            <mxPoint x="790" y="900" as="targetPoint" />
            <Array as="points">
              <mxPoint x="570" y="620" />
              <mxPoint x="790" y="620" />
            </Array>
          </mxGeometry>
        </mxCell>
        <mxCell id="_PpkcO6HTQbjcZgm5GMA-9" value="&lt;font face=&quot;Helvetica&quot;&gt;View User Home Page&lt;/font&gt;" style="whiteSpace=wrap;html=1;fontFamily=Architects Daughter;hachureGap=4;fontSource=https%3A%2F%2Ffonts.googleapis.com%2Fcss%3Ffamily%3DArchitects%2BDaughter;" vertex="1" parent="1">
          <mxGeometry x="461" y="540" width="120" height="60" as="geometry" />
        </mxCell>
        <mxCell id="_PpkcO6HTQbjcZgm5GMA-16" value="" style="endArrow=classic;html=1;rounded=0;hachureGap=4;fontFamily=Architects Daughter;fontSource=https%3A%2F%2Ffonts.googleapis.com%2Fcss%3Ffamily%3DArchitects%2BDaughter;entryX=0.5;entryY=0;entryDx=0;entryDy=0;" edge="1" parent="1" target="_PpkcO6HTQbjcZgm5GMA-1">
          <mxGeometry width="50" height="50" relative="1" as="geometry">
            <mxPoint x="360" y="20" as="sourcePoint" />
            <mxPoint x="400" y="-20" as="targetPoint" />
          </mxGeometry>
        </mxCell>
        <mxCell id="_PpkcO6HTQbjcZgm5GMA-17" value="Start" style="edgeLabel;html=1;align=center;verticalAlign=middle;resizable=0;points=[];hachureGap=4;fontFamily=Helvetica;" vertex="1" connectable="0" parent="_PpkcO6HTQbjcZgm5GMA-16">
          <mxGeometry x="-0.7311" relative="1" as="geometry">
            <mxPoint as="offset" />
          </mxGeometry>
        </mxCell>
        <mxCell id="_PpkcO6HTQbjcZgm5GMA-37" style="edgeStyle=orthogonalEdgeStyle;rounded=1;orthogonalLoop=1;jettySize=auto;html=1;curved=0;" edge="1" parent="1" source="_PpkcO6HTQbjcZgm5GMA-19" target="_PpkcO6HTQbjcZgm5GMA-38">
          <mxGeometry relative="1" as="geometry">
            <mxPoint x="550" y="390" as="targetPoint" />
          </mxGeometry>
        </mxCell>
        <mxCell id="_PpkcO6HTQbjcZgm5GMA-19" value="Login with username &amp;amp; password" style="rounded=0;whiteSpace=wrap;html=1;" vertex="1" parent="1">
          <mxGeometry x="490" y="290" width="120" height="60" as="geometry" />
        </mxCell>
        <mxCell id="_PpkcO6HTQbjcZgm5GMA-21" value="GymThreads User FlowChart" style="text;html=1;align=center;verticalAlign=middle;resizable=0;points=[];autosize=1;strokeColor=none;fillColor=none;" vertex="1" parent="1">
          <mxGeometry x="110" y="60" width="180" height="30" as="geometry" />
        </mxCell>
        <mxCell id="_PpkcO6HTQbjcZgm5GMA-74" style="edgeStyle=orthogonalEdgeStyle;rounded=0;orthogonalLoop=1;jettySize=auto;html=1;" edge="1" parent="1" source="_PpkcO6HTQbjcZgm5GMA-23" target="_PpkcO6HTQbjcZgm5GMA-75">
          <mxGeometry relative="1" as="geometry">
            <mxPoint x="270" y="670" as="targetPoint" />
          </mxGeometry>
        </mxCell>
        <mxCell id="_PpkcO6HTQbjcZgm5GMA-23" value="Create a new post" style="rounded=0;whiteSpace=wrap;html=1;" vertex="1" parent="1">
          <mxGeometry x="361" y="650" width="80" height="40" as="geometry" />
        </mxCell>
        <mxCell id="_PpkcO6HTQbjcZgm5GMA-30" style="edgeStyle=orthogonalEdgeStyle;rounded=0;orthogonalLoop=1;jettySize=auto;html=1;" edge="1" parent="1" source="_PpkcO6HTQbjcZgm5GMA-26" target="_PpkcO6HTQbjcZgm5GMA-31">
          <mxGeometry relative="1" as="geometry">
            <mxPoint x="501" y="800" as="targetPoint" />
          </mxGeometry>
        </mxCell>
        <mxCell id="_PpkcO6HTQbjcZgm5GMA-51" style="edgeStyle=orthogonalEdgeStyle;rounded=1;orthogonalLoop=1;jettySize=auto;html=1;curved=0;" edge="1" parent="1" source="_PpkcO6HTQbjcZgm5GMA-26" target="_PpkcO6HTQbjcZgm5GMA-52">
          <mxGeometry relative="1" as="geometry">
            <mxPoint x="360" y="830" as="targetPoint" />
          </mxGeometry>
        </mxCell>
        <mxCell id="_PpkcO6HTQbjcZgm5GMA-54" style="edgeStyle=orthogonalEdgeStyle;rounded=1;orthogonalLoop=1;jettySize=auto;html=1;curved=0;" edge="1" parent="1" target="_PpkcO6HTQbjcZgm5GMA-55">
          <mxGeometry relative="1" as="geometry">
            <mxPoint x="420" y="924.97" as="targetPoint" />
            <mxPoint x="451.0000000000001" y="750.0044827586207" as="sourcePoint" />
            <Array as="points">
              <mxPoint x="410" y="750" />
            </Array>
          </mxGeometry>
        </mxCell>
        <mxCell id="_PpkcO6HTQbjcZgm5GMA-72" style="edgeStyle=orthogonalEdgeStyle;rounded=1;orthogonalLoop=1;jettySize=auto;html=1;curved=0;" edge="1" parent="1" source="_PpkcO6HTQbjcZgm5GMA-26" target="_PpkcO6HTQbjcZgm5GMA-73">
          <mxGeometry relative="1" as="geometry">
            <mxPoint x="200" y="860.0000000000002" as="targetPoint" />
            <Array as="points">
              <mxPoint x="200" y="720" />
            </Array>
          </mxGeometry>
        </mxCell>
        <mxCell id="_PpkcO6HTQbjcZgm5GMA-26" value="View Everyones Posts" style="rounded=0;whiteSpace=wrap;html=1;" vertex="1" parent="1">
          <mxGeometry x="451" y="710" width="100" height="50" as="geometry" />
        </mxCell>
        <mxCell id="_PpkcO6HTQbjcZgm5GMA-32" style="edgeStyle=orthogonalEdgeStyle;rounded=0;orthogonalLoop=1;jettySize=auto;html=1;" edge="1" parent="1" source="_PpkcO6HTQbjcZgm5GMA-29" target="_PpkcO6HTQbjcZgm5GMA-33">
          <mxGeometry relative="1" as="geometry">
            <mxPoint x="626" y="810" as="targetPoint" />
          </mxGeometry>
        </mxCell>
        <mxCell id="_PpkcO6HTQbjcZgm5GMA-34" style="edgeStyle=orthogonalEdgeStyle;rounded=1;orthogonalLoop=1;jettySize=auto;html=1;curved=0;" edge="1" parent="1" source="_PpkcO6HTQbjcZgm5GMA-29" target="_PpkcO6HTQbjcZgm5GMA-35">
          <mxGeometry relative="1" as="geometry">
            <mxPoint x="721" y="790" as="targetPoint" />
          </mxGeometry>
        </mxCell>
        <mxCell id="_PpkcO6HTQbjcZgm5GMA-29" value="View My Own Posts" style="rounded=0;whiteSpace=wrap;html=1;" vertex="1" parent="1">
          <mxGeometry x="581" y="710" width="90" height="45" as="geometry" />
        </mxCell>
        <mxCell id="_PpkcO6HTQbjcZgm5GMA-31" value="Like/Unlike Posts" style="rounded=0;whiteSpace=wrap;html=1;" vertex="1" parent="1">
          <mxGeometry x="461" y="810" width="80" height="40" as="geometry" />
        </mxCell>
        <mxCell id="_PpkcO6HTQbjcZgm5GMA-33" value="Edit My Own Posts" style="rounded=0;whiteSpace=wrap;html=1;" vertex="1" parent="1">
          <mxGeometry x="588.5" y="780" width="75" height="37.5" as="geometry" />
        </mxCell>
        <mxCell id="_PpkcO6HTQbjcZgm5GMA-35" value="Delete My Own Posts" style="rounded=0;whiteSpace=wrap;html=1;" vertex="1" parent="1">
          <mxGeometry x="691" y="770" width="80" height="40" as="geometry" />
        </mxCell>
        <mxCell id="_PpkcO6HTQbjcZgm5GMA-39" style="edgeStyle=orthogonalEdgeStyle;rounded=1;orthogonalLoop=1;jettySize=auto;html=1;entryX=0.5;entryY=0;entryDx=0;entryDy=0;curved=0;" edge="1" parent="1" source="_PpkcO6HTQbjcZgm5GMA-38" target="_PpkcO6HTQbjcZgm5GMA-9">
          <mxGeometry relative="1" as="geometry" />
        </mxCell>
        <mxCell id="_PpkcO6HTQbjcZgm5GMA-40" value="Valid" style="edgeLabel;html=1;align=center;verticalAlign=middle;resizable=0;points=[];" vertex="1" connectable="0" parent="_PpkcO6HTQbjcZgm5GMA-39">
          <mxGeometry x="-0.3714" y="-1" relative="1" as="geometry">
            <mxPoint x="-8" y="19" as="offset" />
          </mxGeometry>
        </mxCell>
        <mxCell id="_PpkcO6HTQbjcZgm5GMA-41" style="edgeStyle=orthogonalEdgeStyle;rounded=1;orthogonalLoop=1;jettySize=auto;html=1;entryX=1;entryY=0.5;entryDx=0;entryDy=0;curved=0;" edge="1" parent="1" source="_PpkcO6HTQbjcZgm5GMA-38" target="_PpkcO6HTQbjcZgm5GMA-19">
          <mxGeometry relative="1" as="geometry">
            <Array as="points">
              <mxPoint x="630" y="420" />
              <mxPoint x="630" y="320" />
            </Array>
          </mxGeometry>
        </mxCell>
        <mxCell id="_PpkcO6HTQbjcZgm5GMA-42" value="Invalid" style="edgeLabel;html=1;align=center;verticalAlign=middle;resizable=0;points=[];" vertex="1" connectable="0" parent="_PpkcO6HTQbjcZgm5GMA-41">
          <mxGeometry x="0.2432" relative="1" as="geometry">
            <mxPoint as="offset" />
          </mxGeometry>
        </mxCell>
        <mxCell id="_PpkcO6HTQbjcZgm5GMA-38" value="Verify Credentials" style="rounded=0;whiteSpace=wrap;html=1;gradientColor=none;" vertex="1" parent="1">
          <mxGeometry x="490" y="410" width="80" height="40" as="geometry" />
        </mxCell>
        <mxCell id="_PpkcO6HTQbjcZgm5GMA-47" style="edgeStyle=orthogonalEdgeStyle;rounded=0;orthogonalLoop=1;jettySize=auto;html=1;entryX=0.5;entryY=0;entryDx=0;entryDy=0;" edge="1" parent="1" source="_PpkcO6HTQbjcZgm5GMA-46" target="_PpkcO6HTQbjcZgm5GMA-3">
          <mxGeometry relative="1" as="geometry" />
        </mxCell>
        <mxCell id="_PpkcO6HTQbjcZgm5GMA-48" value="No" style="edgeLabel;html=1;align=center;verticalAlign=middle;resizable=0;points=[];" vertex="1" connectable="0" parent="_PpkcO6HTQbjcZgm5GMA-47">
          <mxGeometry x="-0.0966" y="2" relative="1" as="geometry">
            <mxPoint x="-2" as="offset" />
          </mxGeometry>
        </mxCell>
        <mxCell id="_PpkcO6HTQbjcZgm5GMA-49" style="edgeStyle=orthogonalEdgeStyle;rounded=1;orthogonalLoop=1;jettySize=auto;html=1;entryX=1;entryY=0.5;entryDx=0;entryDy=0;curved=0;" edge="1" parent="1" source="_PpkcO6HTQbjcZgm5GMA-46" target="_PpkcO6HTQbjcZgm5GMA-9">
          <mxGeometry relative="1" as="geometry">
            <mxPoint x="720" y="560" as="targetPoint" />
            <Array as="points">
              <mxPoint x="710" y="210" />
              <mxPoint x="710" y="570" />
            </Array>
          </mxGeometry>
        </mxCell>
        <mxCell id="_PpkcO6HTQbjcZgm5GMA-50" value="Yes" style="edgeLabel;html=1;align=center;verticalAlign=middle;resizable=0;points=[];" vertex="1" connectable="0" parent="_PpkcO6HTQbjcZgm5GMA-49">
          <mxGeometry x="-0.5507" y="-1" relative="1" as="geometry">
            <mxPoint x="-97" y="-1" as="offset" />
          </mxGeometry>
        </mxCell>
        <mxCell id="_PpkcO6HTQbjcZgm5GMA-46" value="Authenticated?" style="rhombus;whiteSpace=wrap;html=1;" vertex="1" parent="1">
          <mxGeometry x="310" y="160" width="100" height="100" as="geometry" />
        </mxCell>
        <mxCell id="_PpkcO6HTQbjcZgm5GMA-52" value="Comment on Posts" style="rounded=0;whiteSpace=wrap;html=1;fillColor=light-dark(#FFFFFF,#FF0000);" vertex="1" parent="1">
          <mxGeometry x="290" y="830" width="90" height="45" as="geometry" />
        </mxCell>
        <mxCell id="_PpkcO6HTQbjcZgm5GMA-55" value="Follow User" style="rounded=0;whiteSpace=wrap;html=1;fillColor=light-dark(#FFFFFF,#FF0000);" vertex="1" parent="1">
          <mxGeometry x="370" y="900" width="81" height="40.5" as="geometry" />
        </mxCell>
        <mxCell id="_PpkcO6HTQbjcZgm5GMA-58" style="edgeStyle=orthogonalEdgeStyle;rounded=0;orthogonalLoop=1;jettySize=auto;html=1;" edge="1" parent="1" source="_PpkcO6HTQbjcZgm5GMA-57" target="_PpkcO6HTQbjcZgm5GMA-59">
          <mxGeometry relative="1" as="geometry">
            <mxPoint x="860" y="650" as="targetPoint" />
            <Array as="points">
              <mxPoint x="840" y="630" />
              <mxPoint x="840" y="630" />
            </Array>
          </mxGeometry>
        </mxCell>
        <mxCell id="_PpkcO6HTQbjcZgm5GMA-60" style="edgeStyle=orthogonalEdgeStyle;rounded=1;orthogonalLoop=1;jettySize=auto;html=1;curved=0;" edge="1" parent="1" source="_PpkcO6HTQbjcZgm5GMA-57" target="_PpkcO6HTQbjcZgm5GMA-61">
          <mxGeometry relative="1" as="geometry">
            <mxPoint x="890" y="730" as="targetPoint" />
            <Array as="points">
              <mxPoint x="880" y="670" />
              <mxPoint x="891" y="670" />
              <mxPoint x="891" y="730" />
            </Array>
          </mxGeometry>
        </mxCell>
        <mxCell id="_PpkcO6HTQbjcZgm5GMA-62" style="edgeStyle=orthogonalEdgeStyle;rounded=0;orthogonalLoop=1;jettySize=auto;html=1;" edge="1" parent="1" source="_PpkcO6HTQbjcZgm5GMA-57" target="_PpkcO6HTQbjcZgm5GMA-63">
          <mxGeometry relative="1" as="geometry">
            <mxPoint x="960" y="590" as="targetPoint" />
          </mxGeometry>
        </mxCell>
        <mxCell id="_PpkcO6HTQbjcZgm5GMA-64" style="edgeStyle=orthogonalEdgeStyle;rounded=1;orthogonalLoop=1;jettySize=auto;html=1;curved=0;" edge="1" parent="1" target="_PpkcO6HTQbjcZgm5GMA-65">
          <mxGeometry relative="1" as="geometry">
            <mxPoint x="970" y="650" as="targetPoint" />
            <mxPoint x="899" y="600" as="sourcePoint" />
            <Array as="points">
              <mxPoint x="930" y="600" />
              <mxPoint x="930" y="650" />
            </Array>
          </mxGeometry>
        </mxCell>
        <mxCell id="_PpkcO6HTQbjcZgm5GMA-57" value="View Profile" style="rounded=0;whiteSpace=wrap;html=1;fillColor=light-dark(#FFFFFF,#FF0000);" vertex="1" parent="1">
          <mxGeometry x="820" y="570" width="80" height="40" as="geometry" />
        </mxCell>
        <mxCell id="_PpkcO6HTQbjcZgm5GMA-59" value="Edit Profile" style="rounded=0;whiteSpace=wrap;html=1;fillColor=light-dark(#FFFFFF,#FF0000);" vertex="1" parent="1">
          <mxGeometry x="800" y="650" width="70" height="30" as="geometry" />
        </mxCell>
        <mxCell id="_PpkcO6HTQbjcZgm5GMA-61" value="View Following" style="rounded=0;whiteSpace=wrap;html=1;fillColor=light-dark(#FFFFFF,#FF0000);" vertex="1" parent="1">
          <mxGeometry x="860" y="720" width="70" height="30" as="geometry" />
        </mxCell>
        <mxCell id="_PpkcO6HTQbjcZgm5GMA-63" value="View Followers" style="rounded=0;whiteSpace=wrap;html=1;fillColor=light-dark(#FFFFFF,#FF0000);" vertex="1" parent="1">
          <mxGeometry x="950" y="570" width="100" height="40" as="geometry" />
        </mxCell>
        <mxCell id="_PpkcO6HTQbjcZgm5GMA-66" style="edgeStyle=orthogonalEdgeStyle;rounded=0;orthogonalLoop=1;jettySize=auto;html=1;" edge="1" parent="1" source="_PpkcO6HTQbjcZgm5GMA-65" target="_PpkcO6HTQbjcZgm5GMA-67">
          <mxGeometry relative="1" as="geometry">
            <mxPoint x="1015" y="700" as="targetPoint" />
          </mxGeometry>
        </mxCell>
        <mxCell id="_PpkcO6HTQbjcZgm5GMA-68" style="edgeStyle=orthogonalEdgeStyle;rounded=0;orthogonalLoop=1;jettySize=auto;html=1;" edge="1" parent="1" source="_PpkcO6HTQbjcZgm5GMA-65" target="_PpkcO6HTQbjcZgm5GMA-69">
          <mxGeometry relative="1" as="geometry">
            <mxPoint x="1090" y="652.5" as="targetPoint" />
          </mxGeometry>
        </mxCell>
        <mxCell id="_PpkcO6HTQbjcZgm5GMA-65" value="Account Settings" style="rounded=0;whiteSpace=wrap;html=1;fillColor=light-dark(#FFFFFF,#FF0000);" vertex="1" parent="1">
          <mxGeometry x="970" y="630" width="90" height="45" as="geometry" />
        </mxCell>
        <mxCell id="_PpkcO6HTQbjcZgm5GMA-67" value="Add/Edit Profile pic" style="rounded=0;whiteSpace=wrap;html=1;fillColor=light-dark(#FFFFFF,#FF0000);" vertex="1" parent="1">
          <mxGeometry x="977.5" y="710" width="75" height="30" as="geometry" />
        </mxCell>
        <mxCell id="_PpkcO6HTQbjcZgm5GMA-69" value="Change Password" style="rounded=0;whiteSpace=wrap;html=1;fillColor=light-dark(#FFFFFF,#FF0000);" vertex="1" parent="1">
          <mxGeometry x="1100" y="630" width="90" height="45" as="geometry" />
        </mxCell>
        <mxCell id="_PpkcO6HTQbjcZgm5GMA-71" value="Logout" style="rounded=0;whiteSpace=wrap;html=1;" vertex="1" parent="1">
          <mxGeometry x="530" y="940.5" width="80" height="40" as="geometry" />
        </mxCell>
        <mxCell id="_PpkcO6HTQbjcZgm5GMA-73" value="Like/Unlike Comments on Posts" style="rounded=0;whiteSpace=wrap;html=1;fillColor=light-dark(#FFFFFF,#FF0000);" vertex="1" parent="1">
          <mxGeometry x="140" y="830.0000000000002" width="120" height="60" as="geometry" />
        </mxCell>
        <mxCell id="_PpkcO6HTQbjcZgm5GMA-75" value="Upload Pictures for Post" style="rounded=0;whiteSpace=wrap;html=1;fillColor=light-dark(#FFFFFF,#FF0000);" vertex="1" parent="1">
          <mxGeometry x="150" y="650" width="100" height="40" as="geometry" />
        </mxCell>
        <mxCell id="_PpkcO6HTQbjcZgm5GMA-78" style="edgeStyle=orthogonalEdgeStyle;rounded=0;orthogonalLoop=1;jettySize=auto;html=1;" edge="1" parent="1" source="_PpkcO6HTQbjcZgm5GMA-77" target="_PpkcO6HTQbjcZgm5GMA-79">
          <mxGeometry relative="1" as="geometry">
            <mxPoint x="790" y="940" as="targetPoint" />
          </mxGeometry>
        </mxCell>
        <mxCell id="_PpkcO6HTQbjcZgm5GMA-77" value="Search Users/Posts" style="rounded=0;whiteSpace=wrap;html=1;fillColor=light-dark(#FFFFFF,#FF0000);" vertex="1" parent="1">
          <mxGeometry x="750" y="870" width="80" height="40" as="geometry" />
        </mxCell>
        <mxCell id="_PpkcO6HTQbjcZgm5GMA-82" style="edgeStyle=orthogonalEdgeStyle;rounded=1;orthogonalLoop=1;jettySize=auto;html=1;entryX=0.5;entryY=0;entryDx=0;entryDy=0;curved=0;" edge="1" parent="1" source="_PpkcO6HTQbjcZgm5GMA-79" target="_PpkcO6HTQbjcZgm5GMA-81">
          <mxGeometry relative="1" as="geometry">
            <Array as="points">
              <mxPoint x="770" y="1001" />
              <mxPoint x="750" y="1001" />
            </Array>
          </mxGeometry>
        </mxCell>
        <mxCell id="_PpkcO6HTQbjcZgm5GMA-86" style="edgeStyle=orthogonalEdgeStyle;rounded=0;orthogonalLoop=1;jettySize=auto;html=1;" edge="1" parent="1" source="_PpkcO6HTQbjcZgm5GMA-79" target="_PpkcO6HTQbjcZgm5GMA-87">
          <mxGeometry relative="1" as="geometry">
            <mxPoint x="870" y="1010" as="targetPoint" />
          </mxGeometry>
        </mxCell>
        <mxCell id="_PpkcO6HTQbjcZgm5GMA-79" value="View Search Results" style="rounded=0;whiteSpace=wrap;html=1;fillColor=light-dark(#FFFFFF,#FF0000);" vertex="1" parent="1">
          <mxGeometry x="750" y="940" width="80" height="40.5" as="geometry" />
        </mxCell>
        <mxCell id="_PpkcO6HTQbjcZgm5GMA-85" style="edgeStyle=orthogonalEdgeStyle;rounded=0;orthogonalLoop=1;jettySize=auto;html=1;entryX=0.5;entryY=0;entryDx=0;entryDy=0;" edge="1" parent="1" source="_PpkcO6HTQbjcZgm5GMA-81" target="_PpkcO6HTQbjcZgm5GMA-84">
          <mxGeometry relative="1" as="geometry" />
        </mxCell>
        <mxCell id="_PpkcO6HTQbjcZgm5GMA-81" value="Visit User Profile" style="rounded=0;whiteSpace=wrap;html=1;fillColor=light-dark(#FFFFFF,#FF0000);" vertex="1" parent="1">
          <mxGeometry x="710" y="1020" width="80" height="40.5" as="geometry" />
        </mxCell>
        <mxCell id="_PpkcO6HTQbjcZgm5GMA-84" value="Follow/Unfollow User" style="rounded=0;whiteSpace=wrap;html=1;fillColor=light-dark(#FFFFFF,#FF0000);" vertex="1" parent="1">
          <mxGeometry x="705" y="1100" width="90" height="40.5" as="geometry" />
        </mxCell>
        <mxCell id="_PpkcO6HTQbjcZgm5GMA-87" value="View Searched Posts" style="rounded=0;whiteSpace=wrap;html=1;fillColor=light-dark(#FFFFFF,#FF0000);" vertex="1" parent="1">
          <mxGeometry x="835" y="1015.13" width="95" height="50.25" as="geometry" />
        </mxCell>
      </root>
    </mxGraphModel>
  </diagram>
</mxfile>
